<svg class="typst-doc" viewBox="0 0 71.01417322834645 71.01417322834645" width="71.01417322834645pt" height="71.01417322834645pt" xmlns="http://www.w3.org/2000/svg" xmlns:xlink="http://www.w3.org/1999/xlink" xmlns:h5="http://www.w3.org/1999/xhtml">
    <g>
        <g class="typst-group" transform="matrix(1 0 0 1 2.2 2.2)">
            <g>
                <path class="typst-shape" fill="#cb3c33" fill-rule="nonzero" stroke="#a23029" stroke-width="1" stroke-linecap="butt" stroke-linejoin="miter" stroke-miterlimit="4" transform="matrix(1 0 0 1 0 24.09448818897638)" d="M 0 0m 2.8346457 0 c -1.5641122 0 -2.8346457 1.2705336 -2.8346457 2.8346457 v 36.850395 c 0 1.5641136 1.2705336 2.8346443 2.8346457 2.8346443 h 15.590551 c 1.5641117 0 2.8346443 -1.2705307 2.8346443 -2.8346443 v -36.850395 c 0 -1.5641122 -1.2705326 -2.8346457 -2.8346443 -2.8346457 h -15.590551 Z "/>
                <path class="typst-shape" fill="#4063d8" fill-rule="nonzero" stroke="#334fad" stroke-width="1" stroke-linecap="butt" stroke-linejoin="miter" stroke-miterlimit="4" transform="matrix(1 0 0 1 24.094488188976378 0)" d="M 0 0m 2.8346457 0 c -1.5641122 0 -2.8346457 1.2705336 -2.8346457 2.8346457 v 15.590551 c 0 1.5641117 1.2705336 2.8346443 2.8346457 2.8346443 h 36.850395 c 1.5641136 0 2.8346443 -1.2705326 2.8346443 -2.8346443 v -15.590551 c 0 -1.5641122 -1.2705307 -2.8346457 -2.8346443 -2.8346457 h -36.850395 Z "/>
                <path class="typst-shape" fill="#389826" fill-rule="nonzero" stroke="#2d7a1e" stroke-width="1" stroke-linecap="butt" stroke-linejoin="miter" stroke-miterlimit="4" d="M 0 0m 2.8346457 0 c -1.5641122 0 -2.8346457 1.2705336 -2.8346457 2.8346457 v 15.590551 c 0 1.5641117 1.2705336 2.8346443 2.8346457 2.8346443 h 15.590551 c 1.5641117 0 2.8346443 -1.2705326 2.8346443 -2.8346443 v -15.590551 c 0 -1.5641122 -1.2705326 -2.8346457 -2.8346443 -2.8346457 h -15.590551 Z "/>
                <path class="typst-shape" fill="#9558b2" fill-rule="nonzero" stroke="#77468e" stroke-width="1" stroke-linecap="butt" stroke-linejoin="miter" stroke-miterlimit="4" transform="matrix(1 0 0 1 24.094488188976378 24.09448818897638)" d="M 0 0m 2.8346457 0 c -1.5641122 0 -2.8346457 1.2705336 -2.8346457 2.8346457 v 36.850395 c 0 1.5641136 1.2705336 2.8346443 2.8346457 2.8346443 h 36.850395 c 1.5641136 0 2.8346443 -1.2705307 2.8346443 -2.8346443 v -36.850395 c 0 -1.5641122 -1.2705307 -2.8346457 -2.8346443 -2.8346457 h -36.850395 Z "/>
            </g>
        </g>
    </g>
</svg>
